<?xml version="1.0" encoding="UTF-8"?>
<svg version="1.1" xmlns="http://www.w3.org/2000/svg" width="500" height="500">
<path d="M0 0 C0.86376411 -0.00260775 1.72752821 -0.00521549 2.61746699 -0.00790226 C3.57202341 -0.00567154 4.52657984 -0.00344082 5.51006222 -0.0011425 C7.02452329 -0.00348249 7.02452329 -0.00348249 8.56957954 -0.00586975 C11.97447322 -0.00987887 15.37932282 -0.00669043 18.78421688 -0.00355339 C21.21635623 -0.00490746 23.64849537 -0.00668743 26.08063412 -0.00886345 C32.01368123 -0.01296125 37.94671676 -0.01234588 43.87976355 -0.00945081 C48.69950301 -0.00719597 53.51923893 -0.0068846 58.33897877 -0.00797462 C59.36641055 -0.00820447 59.36641055 -0.00820447 60.41459854 -0.00843897 C61.80588874 -0.00875868 63.19717894 -0.00908289 64.58846914 -0.00941156 C77.64536455 -0.01226553 90.70225296 -0.00898051 103.75914722 -0.00361119 C114.97405025 0.00085777 126.18894294 0.00007999 137.40384579 -0.00452995 C150.41433871 -0.00987545 163.42482549 -0.0119919 176.43531936 -0.00891769 C177.82129665 -0.00859913 179.20727394 -0.00828475 180.59325123 -0.00797462 C181.27525578 -0.00782035 181.95726033 -0.00766607 182.65993168 -0.00750712 C187.47702749 -0.00664197 192.29411942 -0.00810479 197.11121464 -0.01045418 C203.58799189 -0.01354347 210.06475415 -0.01135985 216.54152966 -0.00555992 C218.92608323 -0.0042316 221.31063845 -0.00462764 223.69519138 -0.00682259 C226.93526221 -0.00953126 230.17526898 -0.00615646 233.41533566 -0.0011425 C234.3721228 -0.00337322 235.32890995 -0.00560395 236.31469065 -0.00790226 C242.78505723 0.01169125 242.78505723 0.01169125 243.89920712 1.12584114 C243.99545305 2.84676767 244.02108309 4.57167496 244.01946163 6.29528999 C244.02152363 7.97597572 244.02152363 7.97597572 244.02362728 9.6906147 C244.02003201 10.93066765 244.01643673 12.1707206 244.01273251 13.44835091 C244.01287853 14.74572182 244.01302456 16.04309273 244.01317501 17.37977791 C244.01346298 20.94780043 244.00756644 24.51578962 244.00060105 28.08380437 C243.99436733 31.80874734 243.9937637 35.533691 243.99257565 39.25863838 C243.98946238 46.31701477 243.98124907 53.37537574 243.97122616 60.43374532 C243.96006485 68.46747085 243.95455453 76.5011971 243.94953072 84.53492844 C243.93906645 101.06524171 243.92146711 117.59553946 243.89920712 134.12584114 C240.87623506 133.09031733 237.85630131 132.04616975 234.83670712 131.00084114 C234.00848446 130.71724739 233.1802618 130.43365364 232.32694149 130.14146614 C224.38858367 127.38550795 216.73211352 124.2590037 208.89920712 121.12584114 C208.89920712 92.74584114 208.89920712 64.36584114 208.89920712 35.12584114 C149.49920712 35.12584114 90.09920712 35.12584114 28.89920712 35.12584114 C29.22920712 52.28584114 29.55920712 69.44584114 29.89920712 87.12584114 C39.02356411 90.70193268 39.02356411 90.70193268 48.14871883 94.27598763 C49.28067684 94.72015022 50.41263485 95.16431282 51.57889462 95.62193489 C52.74146786 96.07753792 53.9040411 96.53314095 55.10184383 97.00255013 C57.89920712 98.12584114 57.89920712 98.12584114 59.89920712 99.12584114 C59.89920712 85.26584114 59.89920712 71.40584114 59.89920712 57.12584114 C98.83920712 57.12584114 137.77920712 57.12584114 177.89920712 57.12584114 C177.89920712 110.25584114 177.89920712 163.38584114 177.89920712 218.12584114 C150.50920712 218.12584114 123.11920712 218.12584114 94.89920712 218.12584114 C94.89920712 230.33584114 94.89920712 242.54584114 94.89920712 255.12584114 C91.90858212 254.09459114 88.91795712 253.06334114 85.83670712 252.00084114 C84.47533627 251.53460335 84.47533627 251.53460335 83.08646297 251.05894661 C75.22870099 248.32773074 67.65524256 245.22825532 59.89920712 242.12584114 C59.56920712 207.47584114 59.23920712 172.82584114 58.89920712 137.12584114 C26.41881829 124.57472452 26.41881829 124.57472452 -6.10079288 112.12584114 C-6.10079288 75.49584114 -6.10079288 38.86584114 -6.10079288 1.12584114 C-3.81048663 -0.01931199 -2.54540512 0.00055172 0 0 Z M94.89920712 92.12584114 C94.89920712 122.15584114 94.89920712 152.18584114 94.89920712 183.12584114 C110.73920712 183.12584114 126.57920712 183.12584114 142.89920712 183.12584114 C142.89920712 153.09584114 142.89920712 123.06584114 142.89920712 92.12584114 C127.05920712 92.12584114 111.21920712 92.12584114 94.89920712 92.12584114 Z " fill="#EA3237" transform="translate(131.10079288482666,87.87415885925293)"/>
<path d="M0 0 C4.06487725 0.67747954 6.95938091 1.20463794 10.65332031 2.6105957 C11.95562592 3.10164543 11.95562592 3.10164543 13.28424072 3.60261536 C14.66721344 4.13383247 14.66721344 4.13383247 16.078125 4.67578125 C17.0447406 5.04221237 18.0113562 5.40864349 19.00726318 5.78617859 C22.09017656 6.95643222 25.17005854 8.1344501 28.25 9.3125 C30.30580356 10.09358875 32.36179139 10.87419267 34.41796875 11.65429688 C38.22276227 13.10044394 42.02723792 14.54738669 45.82910156 16.0012207 C46.58821838 16.29132523 47.34733521 16.58142975 48.12945557 16.88032532 C52.43095436 18.55815313 56.71309149 20.2852366 61 22 C61 57.31 61 92.62 61 129 C32.68470866 139.90834994 4.3611365 150.78996612 -24.00927734 161.55395508 C-24.98094849 161.92285355 -25.95261963 162.29175201 -26.95373535 162.67182922 C-28.85485317 163.39232698 -30.75677255 164.11071379 -32.6595459 164.826828 C-37.41371712 166.6192789 -42.14578358 168.45206867 -46.85595703 170.35742188 C-47.80491348 170.73541931 -48.75386993 171.11341675 -49.73158264 171.50286865 C-51.52394253 172.21824603 -53.31137468 172.94615217 -55.09251404 173.68902588 C-63.49201155 177.01398122 -69.4647523 175.07902486 -77.55078125 171.8515625 C-78.38165253 171.52727768 -79.2125238 171.20299286 -80.068573 170.86888123 C-81.87220419 170.16411248 -83.67452962 169.45599485 -85.47567749 168.74490356 C-90.38687666 166.80609018 -95.30747622 164.89134893 -100.2265625 162.97265625 C-101.25978134 162.56883224 -102.29300018 162.16500824 -103.35752869 161.74894714 C-114.19507202 157.51892724 -125.07406329 153.40000998 -135.95568848 149.28503418 C-164.75267437 138.39167011 -164.75267437 138.39167011 -178.5625 132.875 C-180.05076294 132.28150757 -180.05076294 132.28150757 -181.5690918 131.67602539 C-187.86690508 129.13309492 -187.86690508 129.13309492 -189 128 C-189.09608663 126.35509451 -189.12187787 124.70604309 -189.12025452 123.05833435 C-189.12162918 121.98836212 -189.12300385 120.91838989 -189.12442017 119.81599426 C-189.12082489 118.63204575 -189.11722961 117.44809723 -189.11352539 116.22827148 C-189.11367142 114.989422 -189.11381744 113.75057251 -189.1139679 112.47418213 C-189.11338892 109.06730167 -189.10835959 105.66048116 -189.10139394 102.25361133 C-189.09515993 98.69683174 -189.09455656 95.14005142 -189.09336853 91.58326721 C-189.09025535 84.84363418 -189.08204215 78.10401729 -189.07201904 71.36439139 C-189.06085748 63.69341602 -189.05534735 56.02243989 -189.05032361 48.35145843 C-189.03985952 32.56762959 -189.02226035 16.78381687 -189 1 C-176.79062291 2.74419673 -165.47926842 8.49028741 -154 13 C-153.67 43.03 -153.34 73.06 -153 104 C-144.42 107.3 -135.84 110.6 -127 114 C-116.66796875 117.9765625 -116.66796875 117.9765625 -111.91064453 119.80859375 C-108.6538341 121.06208105 -105.39550983 122.31154064 -102.13623047 123.55859375 C-95.11963904 126.24528946 -88.10894259 128.93387937 -81.15234375 131.7734375 C-80.19239502 132.15935059 -79.23244629 132.54526367 -78.2434082 132.94287109 C-76.58029004 133.61432113 -74.92299093 134.30051733 -73.27416992 135.00634766 C-64.62616399 138.46399516 -57.12401153 136.03624719 -48.796875 132.67578125 C-47.93229172 132.33737213 -47.06770844 131.99896301 -46.17692566 131.65029907 C-44.32431999 130.92379311 -42.47362699 130.1923938 -40.62472534 129.45651245 C-37.71789151 128.29972225 -34.80624533 127.15595411 -31.89282227 126.01586914 C-27.89808209 124.45242119 -23.90487195 122.88516264 -19.91259766 121.31542969 C-11.74929581 118.11203041 -3.56211227 114.97213283 4.63635254 111.85995483 C7.02981058 110.94992897 9.42068403 110.03333432 11.81152344 109.11645508 C13.26091241 108.56550924 14.71044807 108.01494909 16.16015625 107.46484375 C16.81434036 107.21256012 17.46852448 106.96027649 18.14253235 106.7003479 C20.92915841 105.6508069 22.99139846 105 26 105 C26 85.53 26 66.06 26 46 C23.03 45.505 23.03 45.505 20 45 C18.32771741 44.4366792 16.67229478 43.82048423 15.0390625 43.15234375 C14.24193848 42.82999756 13.44481445 42.50765137 12.62353516 42.17553711 C11.63401855 41.76698486 10.64450195 41.35843262 9.625 40.9375 C6.44875 39.638125 3.2725 38.33875 0 37 C0 24.79 0 12.58 0 0 Z " fill="#EA3237" transform="translate(314,235)"/>
<path d="M0 0 C38.94 0 77.88 0 118 0 C118 53.13 118 106.26 118 161 C90.94 161 63.88 161 36 161 C36 160.67 36 160.34 36 160 C62.73 160 89.46 160 117 160 C117 107.53 117 55.06 117 1 C78.72 1 40.44 1 1 1 C1 15.19 1 29.38 1 44 C-0.485 44.495 -0.485 44.495 -2 45 C-2.41507813 44.53851563 -2.83015625 44.07703125 -3.2578125 43.6015625 C-7.11574159 40.05503576 -12.92538737 38.79290822 -18 38 C-18.495 36.515 -18.495 36.515 -19 35 C-17.70692774 35.41228391 -16.41565267 35.83020294 -15.125 36.25 C-14.40570313 36.48203125 -13.68640625 36.7140625 -12.9453125 36.953125 C-8.58134006 38.50424518 -4.30018336 40.27992666 0 42 C0 28.14 0 14.28 0 0 Z " fill="#BA4547" transform="translate(191,145)"/>
<path d="M0 0 C1.29657121 -0.00298657 1.29657121 -0.00298657 2.61933577 -0.00603348 C3.57457432 -0.00312064 4.52981286 -0.0002078 5.51399803 0.00279331 C6.52434431 0.00193889 7.5346906 0.00108446 8.57565343 0.00020415 C11.9828842 -0.00145139 15.39006643 0.00407193 18.79729271 0.00952244 C21.23105429 0.00980432 23.66481596 0.00964656 26.0985775 0.00907993 C31.34947878 0.00885174 36.60036896 0.01169992 41.85126686 0.01731777 C49.44324078 0.02543503 57.03520868 0.02804823 64.62718646 0.02930576 C76.94382033 0.03149593 89.26044759 0.03815505 101.57707787 0.04760838 C113.54354888 0.05678341 125.51001811 0.0638638 137.47649193 0.06811619 C138.21375439 0.06837891 138.95101685 0.06864164 139.7106206 0.06891232 C143.40914492 0.07021733 147.10766925 0.07148104 150.80619359 0.07272422 C181.5029384 0.08309572 212.19967518 0.10078726 242.8964138 0.12304783 C242.8964138 0.45304783 242.8964138 0.78304783 242.8964138 1.12304783 C161.7164138 1.12304783 80.5364138 1.12304783 -3.1035862 1.12304783 C-3.8813255 4.23400502 -4.23476737 6.33299914 -4.26180458 9.43841648 C-4.27648781 10.72140881 -4.27648781 10.72140881 -4.29146767 12.03032017 C-4.29722313 12.96036366 -4.30297859 13.89040714 -4.30890846 14.84863377 C-4.31880806 15.8343285 -4.32870766 16.82002323 -4.33890724 17.8355875 C-4.37048834 21.09284153 -4.39526637 24.35011014 -4.41999245 27.60742283 C-4.44056489 29.86615471 -4.46156144 32.12488276 -4.48296547 34.38360691 C-4.53815608 40.32819616 -4.58757869 46.27281999 -4.63581276 52.21746922 C-4.68604972 58.28368296 -4.74172434 64.34984652 -4.79694557 70.41601658 C-4.90449035 82.31831745 -5.00594355 94.2206619 -5.1035862 106.12304783 C-5.4335862 106.12304783 -5.7635862 106.12304783 -6.1035862 106.12304783 C-6.1035862 71.47304783 -6.1035862 36.82304783 -6.1035862 1.12304783 C-3.81182771 -0.02283141 -2.54706959 -0.00129031 0 0 Z " fill="#B53031" transform="translate(131.1035861968994,87.87695217132568)"/>
<path d="M0 0 C7 1 7 1 9 3 C6.69 2.67 4.38 2.34 2 2 C2.33 43.58 2.66 85.16 3 128 C2.01 127.67 1.02 127.34 0 127 C0 85.09 0 43.18 0 0 Z " fill="#C23B3F" transform="translate(125,236)"/>
<path d="M0 0 C0.66 0 1.32 0 2 0 C2 35.31 2 70.62 2 107 C-4.93 109.64 -11.86 112.28 -19 115 C-19.66 114.67 -20.32 114.34 -21 114 C-17.2254491 110.55367092 -12.77319161 109.47249239 -8 108 C-6.2984375 107.4121875 -6.2984375 107.4121875 -4.5625 106.8125 C-2 106 -2 106 0 106 C0 71.02 0 36.04 0 0 Z " fill="#C73E43" transform="translate(373,257)"/>
<path d="M0 0 C4.63650028 0.77275005 7.99463034 1.61176137 12.2734375 3.28515625 C13.42714844 3.73310547 14.58085937 4.18105469 15.76953125 4.64257812 C16.95933594 5.11115234 18.14914062 5.57972656 19.375 6.0625 C20.58800781 6.53494141 21.80101562 7.00738281 23.05078125 7.49414062 C26.03590179 8.65763249 29.01884108 9.82640292 32 11 C27.74938644 12.41687119 25.28148375 11.19320039 21 10 C21 9.34 21 8.68 21 8 C18.03 7.505 18.03 7.505 15 7 C10.38 5.35 5.76 3.7 1 2 C1 13.22 1 24.44 1 36 C2.65 36.33 4.3 36.66 6 37 C12.73154362 38.59731544 12.73154362 38.59731544 15 42 C13.43662827 41.54464901 11.87434151 41.08557224 10.3125 40.625 C9.44238281 40.36976563 8.57226562 40.11453125 7.67578125 39.8515625 C5.07486881 39.02382686 2.53422977 38.01369191 0 37 C0 24.79 0 12.58 0 0 Z " fill="#C73C41" transform="translate(314,235)"/>
<path d="M0 0 C0.99 0 1.98 0 3 0 C2.83826325 0.57099552 2.67652651 1.14199104 2.50988865 1.73028946 C1.99933261 4.00297083 1.86202833 5.98988929 1.84178162 8.31536865 C1.82709839 9.59836098 1.82709839 9.59836098 1.81211853 10.90727234 C1.80636307 11.83731583 1.8006076 12.76735931 1.79467773 13.72558594 C1.78477814 14.71128067 1.77487854 15.6969754 1.76467896 16.71253967 C1.73309786 19.9697937 1.70831983 23.22706231 1.68359375 26.484375 C1.6630213 28.74310688 1.64202475 31.00183493 1.62062073 33.26055908 C1.56543011 39.20514834 1.5160075 45.14977216 1.46777344 51.09442139 C1.41753648 57.16063514 1.36186186 63.22679869 1.30664062 69.29296875 C1.19909585 81.19526962 1.09764265 93.09761407 1 105 C0.67 105 0.34 105 0 105 C0 70.35 0 35.7 0 0 Z " fill="#A63F40" transform="translate(125,89)"/>
<path d="M0 0 C0.66 0.33 1.32 0.66 2 1 C1.67 15.19 1.34 29.38 1 44 C-0.485 44.495 -0.485 44.495 -2 45 C-2.41507813 44.53851563 -2.83015625 44.07703125 -3.2578125 43.6015625 C-7.11574159 40.05503576 -12.92538737 38.79290822 -18 38 C-18.495 36.515 -18.495 36.515 -19 35 C-17.70692774 35.41228391 -16.41565267 35.83020294 -15.125 36.25 C-14.40570313 36.48203125 -13.68640625 36.7140625 -12.9453125 36.953125 C-8.58134006 38.50424518 -4.30018336 40.27992666 0 42 C0 28.14 0 14.28 0 0 Z " fill="#AE3E3E" transform="translate(191,145)"/>
<path d="M0 0 C0.33 0 0.66 0 1 0 C1.33 17.16 1.66 34.32 2 52 C6.95 53.98 6.95 53.98 12 56 C7.82091936 58.08954032 7.19589427 58.16552619 3 57 C3 56.01 3 55.02 3 54 C2.01 53.67 1.02 53.34 0 53 C0 35.51 0 18.02 0 0 Z " fill="#DF3F42" transform="translate(159,123)"/>
<path d="M0 0 C0 0.99 0 1.98 0 3 C2.31 2.34 4.62 1.68 7 1 C7 1.99 7 2.98 7 4 C8.65 3.67 10.3 3.34 12 3 C12.33 4.32 12.66 5.64 13 7 C9.86332092 8.02826931 8.16815258 7.99386675 5.109375 6.78515625 C4.40039062 6.51123047 3.69140625 6.23730469 2.9609375 5.95507812 C2.23132813 5.66052734 1.50171875 5.36597656 0.75 5.0625 C0.00492188 4.77181641 -0.74015625 4.48113281 -1.5078125 4.18164062 C-3.34241814 3.46426278 -5.17175065 2.73342561 -7 2 C-4.35261084 0.5393715 -3.10551666 0 0 0 Z " fill="#DE373B" transform="translate(179,216)"/>
<path d="M0 0 C5.28 0 10.56 0 16 0 C15.67 1.65 15.34 3.3 15 5 C16.98 5.66 18.96 6.32 21 7 C19 8 19 8 17.02880859 7.47094727 C15.8505249 7.02319946 15.8505249 7.02319946 14.6484375 6.56640625 C13.79765625 6.24736328 12.946875 5.92832031 12.0703125 5.59960938 C11.18085938 5.25736328 10.29140625 4.91511719 9.375 4.5625 C8.4778125 4.22412109 7.580625 3.88574219 6.65625 3.53710938 C4.43483339 2.69817012 2.21634729 1.8522225 0 1 C0 0.67 0 0.34 0 0 Z " fill="#DD3637" transform="translate(143,370)"/>
<path d="M0 0 C0.33 0 0.66 0 1 0 C1 1.98 1 3.96 1 6 C-6.2271408 9.14169523 -13.39162534 11.92957946 -21 14 C-17.44890612 9.5225338 -13.26293065 8.54148229 -8 7 C-6.865625 6.608125 -5.73125 6.21625 -4.5625 5.8125 C-2 5 -2 5 0 5 C0 3.35 0 1.7 0 0 Z " fill="#D03C43" transform="translate(373,358)"/>
<path d="M0 0 C0.66 1.98 1.32 3.96 2 6 C-1.30435084 7.12377697 -3.0506862 6.89554742 -6.25 5.5625 C-6.95640625 5.27503906 -7.6628125 4.98757813 -8.390625 4.69140625 C-8.92171875 4.46324219 -9.4528125 4.23507812 -10 4 C-8.66666667 3.33333333 -7.33333333 2.66666667 -6 2 C-5.29875 1.62875 -4.5975 1.2575 -3.875 0.875 C-2 0 -2 0 0 0 Z " fill="#DE373A" transform="translate(182,378)"/>
<path d="M0 0 C4.17576168 0.68416434 7.88080407 2.01365009 11.8125 3.5625 C13.55466797 4.24505859 13.55466797 4.24505859 15.33203125 4.94140625 C16.21246094 5.29074219 17.09289062 5.64007813 18 6 C18 6.33 18 6.66 18 7 C13.83861737 7.08159574 10.0527516 6.98248524 6 6 C6 5.01 6 4.02 6 3 C5.195625 2.87625 4.39125 2.7525 3.5625 2.625 C2.716875 2.41875 1.87125 2.2125 1 2 C0.67 1.34 0.34 0.68 0 0 Z " fill="#D43A3D" transform="translate(187,350)"/>
<path d="M0 0 C-0.6875 2.4375 -0.6875 2.4375 -2 5 C-6.0683654 6.55555148 -10.69503828 6.07296545 -15 6 C-12.61874536 3.61874536 -10.66142433 2.99813759 -7.5 1.875 C-6.5203125 1.52179688 -5.540625 1.16859375 -4.53125 0.8046875 C-2 0 -2 0 0 0 Z " fill="#D63838" transform="translate(310,351)"/>
<path d="M0 0 C10.55808656 3.07517084 10.55808656 3.07517084 15 5 C14.01 5.66 13.02 6.32 12 7 C12.33 7.66 12.66 8.32 13 9 C10.36 8.34 7.72 7.68 5 7 C5.33 5.68 5.66 4.36 6 3 C3.03 2.505 3.03 2.505 0 2 C0 1.34 0 0.68 0 0 Z " fill="#D83538" transform="translate(169,343)"/>
<path d="M0 0 C0.53367188 0.18175781 1.06734375 0.36351562 1.6171875 0.55078125 C2.36226562 0.80214844 3.10734375 1.05351562 3.875 1.3125 C4.68710938 1.58707031 5.49921875 1.86164063 6.3359375 2.14453125 C9.86625444 3.27816675 13.44242615 4.22581419 17.03125 5.15625 C17.6809375 5.4346875 18.330625 5.713125 19 6 C19.33 6.99 19.66 7.98 20 9 C19.01 9.33 18.02 9.66 17 10 C16.58492187 9.53851563 16.16984375 9.07703125 15.7421875 8.6015625 C11.88425841 5.05503576 6.07461263 3.79290822 1 3 C0.67 2.01 0.34 1.02 0 0 Z " fill="#D03A3F" transform="translate(172,180)"/>
<path d="M0 0 C0.99 0 1.98 0 3 0 C2.84152588 0.53012695 2.68305176 1.06025391 2.51977539 1.60644531 C1.88524553 4.52844192 1.78228868 7.30782847 1.68359375 10.296875 C1.64169922 11.50214844 1.59980469 12.70742187 1.55664062 13.94921875 C1.51732422 15.20347656 1.47800781 16.45773438 1.4375 17.75 C1.39431641 19.01972656 1.35113281 20.28945312 1.30664062 21.59765625 C1.20060278 24.73166365 1.09853942 27.86574933 1 31 C0.67 31 0.34 31 0 31 C0 20.77 0 10.54 0 0 Z " fill="#B43B3D" transform="translate(125,89)"/>
<path d="M0 0 C0 0.66 0 1.32 0 2 C-0.639375 2.268125 -1.27875 2.53625 -1.9375 2.8125 C-4.33131686 3.88667752 -4.33131686 3.88667752 -5 7 C-5.99 7 -6.98 7 -8 7 C-8 6.34 -8 5.68 -8 5 C-9.32 4.67 -10.64 4.34 -12 4 C-10.3767313 3.3291288 -8.75132422 2.66342971 -7.125 2 C-6.22007812 1.62875 -5.31515625 1.2575 -4.3828125 0.875 C-2 0 -2 0 0 0 Z " fill="#D43A3D" transform="translate(331,343)"/>
<path d="M0 0 C2.31 0.33 4.62 0.66 7 1 C4.32975467 2.78016355 1.94969139 3.97163019 -1 5.1875 C-1.86625 5.55230469 -2.7325 5.91710937 -3.625 6.29296875 C-6 7 -6 7 -9 6 C-3.375 3 -3.375 3 0 3 C0 2.01 0 1.02 0 0 Z " fill="#CF393F" transform="translate(290,392)"/>
<path d="M0 0 C4.09098304 0.7438151 8.05999767 1.661886 12 3 C12.99 4.485 12.99 4.485 14 6 C12.41531323 5.54636829 10.83230076 5.08688548 9.25 4.625 C8.36828125 4.36976563 7.4865625 4.11453125 6.578125 3.8515625 C4.23919428 3.0790066 2.16557438 2.16374324 0 1 C0 0.67 0 0.34 0 0 Z " fill="#D23C42" transform="translate(315,271)"/>
<path d="M0 0 C3.63 1.32 7.26 2.64 11 4 C6.82091936 6.08954032 6.19589427 6.16552619 2 5 C2 4.01 2 3.02 2 2 C1.34 2 0.68 2 0 2 C0 1.34 0 0.68 0 0 Z " fill="#D4373C" transform="translate(160,175)"/>
<path d="M0 0 C2.31 0.33 4.62 0.66 7 1 C3.32740617 3.44839588 0.45351799 5 -4 5 C-4 4.01 -4 3.02 -4 2 C-2.68 2 -1.36 2 0 2 C0 1.34 0 0.68 0 0 Z " fill="#D4393E" transform="translate(264,402)"/>
<path d="M0 0 C-3 2 -3 2 -6 2 C-6.33 3.32 -6.66 4.64 -7 6 C-8.98 5.34 -10.96 4.68 -13 4 C-10.56272708 2.37515139 -8.62713877 1.34310925 -5.9375 0.3125 C-5.24527344 0.04050781 -4.55304688 -0.23148437 -3.83984375 -0.51171875 C-2 -1 -2 -1 0 0 Z " fill="#D13739" transform="translate(292,359)"/>
<path d="M0 0 C1.60520004 0.06023265 3.20934327 0.14908599 4.8125 0.25 C6.15248047 0.31960938 6.15248047 0.31960938 7.51953125 0.390625 C10 1 10 1 11.82421875 3.046875 C12.40623047 4.01367188 12.40623047 4.01367188 13 5 C11.39402675 4.54803755 9.79027492 4.08817673 8.1875 3.625 C6.84751953 3.24214844 6.84751953 3.24214844 5.48046875 2.8515625 C3 2 3 2 0 0 Z " fill="#D33E41" transform="translate(143,370)"/>
<path d="M0 0 C0 0.99 0 1.98 0 3 C0.99 3 1.98 3 3 3 C3 3.66 3 4.32 3 5 C-0.3 4.01 -3.6 3.02 -7 2 C-3 0 -3 0 0 0 Z " fill="#D43D3D" transform="translate(179,216)"/>
<path d="M0 0 C8.19256018 0.35010941 8.19256018 0.35010941 11.5625 3.0625 C12.036875 3.701875 12.51125 4.34125 13 5 C11.39402675 4.54803755 9.79027492 4.08817673 8.1875 3.625 C6.84751953 3.24214844 6.84751953 3.24214844 5.48046875 2.8515625 C3 2 3 2 0 0 Z " fill="#CA3D40" transform="translate(232,404)"/>
<path d="M0 0 C0.33 0.66 0.66 1.32 1 2 C3.02463255 2.65213292 3.02463255 2.65213292 5 3 C5 3.66 5 4.32 5 5 C1.7 4.01 -1.6 3.02 -5 2 C-5 1.67 -5 1.34 -5 1 C-3.35 0.67 -1.7 0.34 0 0 Z " fill="#D03B3F" transform="translate(219,396)"/>
</svg>
